<svg version="1.1" id="Layer_1" xmlns="http://www.w3.org/2000/svg" xmlns:xlink="http://www.w3.org/1999/xlink" x="0px" y="0px"
	 width="100%" viewBox="0 0 310 310" enable-background="new 0 0 310 310" xml:space="preserve">
<path fill="#FCFCFC" opacity="1.000000" stroke="none" 
	d="
M169.000000,311.000000 
	C112.666695,311.000000 56.833385,311.000000 1.000060,311.000000 
	C1.000040,207.666748 1.000040,104.333488 1.000020,1.000171 
	C104.333214,1.000114 207.666428,1.000114 310.999725,1.000057 
	C310.999817,104.333160 310.999817,207.666321 310.999908,310.999756 
	C263.833344,311.000000 216.666672,311.000000 169.000000,311.000000 
M200.784119,270.560150 
	C200.161331,248.800613 199.364243,227.029175 204.140350,204.596024 
	C205.965164,206.065430 206.752472,206.460587 207.198441,207.095490 
	C211.616730,213.385345 217.223801,216.555252 225.111938,214.347336 
	C225.822754,214.148361 227.314545,214.688812 227.584778,215.279068 
	C230.811493,222.327606 238.355698,228.049332 234.563034,237.322159 
	C234.383682,237.760681 234.532257,238.321823 234.441711,238.809845 
	C232.196121,250.913315 228.723450,262.230988 218.239166,270.289307 
	C215.568588,272.341888 213.041824,276.510834 213.015228,279.728607 
	C212.918137,291.479126 227.571686,299.392090 237.848297,293.747742 
	C248.344788,287.982574 252.572159,278.027985 255.637817,267.336639 
	C257.440155,261.051056 258.895020,254.665848 260.511261,248.305527 
	C261.603455,248.465073 262.075867,248.548431 262.551697,248.601440 
	C269.412354,249.365692 276.261780,250.337799 283.143860,250.718216 
	C284.619812,250.799789 286.214355,248.735886 287.754242,247.660324 
	C286.576904,246.680481 285.460114,245.614655 284.211731,244.735733 
	C278.819427,240.939240 273.291199,237.324768 268.058350,233.322540 
	C267.075043,232.570465 266.451691,230.011139 266.961517,228.862366 
	C270.044373,221.915680 272.625732,214.506958 276.991882,208.410934 
	C295.324829,182.814545 303.108521,154.184372 302.070770,123.143547 
	C301.703278,112.151817 300.970673,100.485680 297.038971,90.445457 
	C289.319092,70.731445 272.292267,60.473663 252.736877,54.481831 
	C246.614120,52.605801 241.480377,58.520859 243.498413,64.597633 
	C244.267258,66.912788 245.699417,69.027451 246.960968,71.155411 
	C250.508301,77.138985 249.757675,84.536606 244.993973,89.583504 
	C241.690262,93.083618 237.400665,93.391884 233.513107,91.688484 
	C229.625961,89.985252 229.952164,86.140915 231.186951,82.570038 
	C231.779572,80.856186 232.132065,78.990173 233.050934,77.469589 
	C238.559128,68.354271 239.303207,58.749786 236.295471,48.711941 
	C233.373016,38.958630 229.944855,29.436026 221.793076,22.630405 
	C217.186127,18.784229 211.917938,16.816925 206.220718,20.015169 
	C202.493607,22.107460 198.645721,24.446131 195.820358,27.554655 
	C192.940475,30.723156 190.059616,31.157883 186.177933,30.930916 
	C175.885406,30.329098 165.531464,29.454266 155.269913,29.989929 
	C143.192139,30.620407 131.333008,33.096684 120.432404,38.933624 
	C94.164169,52.999466 72.101372,72.090179 53.936901,95.546776 
	C40.236015,113.239342 29.496012,132.601639 24.931726,154.853226 
	C23.901562,159.875427 24.368559,165.581390 22.104452,169.902771 
	C15.478684,182.549042 13.490033,195.868240 13.587098,209.823944 
	C13.607166,212.709305 13.005798,215.720856 12.078366,218.467422 
	C9.591599,225.831940 10.964247,232.048325 16.554527,236.833466 
	C22.130646,232.375473 24.027201,226.263443 21.539768,219.626205 
	C18.528883,211.592224 19.880474,203.592880 21.413927,195.595245 
	C21.680952,194.202606 22.838394,192.980698 24.047173,190.873535 
	C24.847942,192.835037 25.321241,193.679993 25.544043,194.586533 
	C30.080692,213.045456 34.449978,231.546814 39.147945,249.964355 
	C42.665730,263.755219 47.532887,277.263489 46.296791,291.872589 
	C45.761707,298.196625 47.375774,299.847595 53.953342,299.889282 
	C66.618141,299.969513 79.285316,299.802734 91.948265,299.975891 
	C96.260880,300.034851 97.357475,298.352295 96.912056,294.273804 
	C96.176361,287.537384 95.435410,280.739594 95.558273,273.983368 
	C95.886345,255.942932 102.449005,241.406738 119.724693,233.237106 
	C126.992096,229.800369 134.462677,228.309540 142.420120,229.644196 
	C150.004639,230.916306 155.438156,238.147034 156.142807,249.250198 
	C157.027863,263.195831 157.281815,277.181824 157.784195,291.151245 
	C158.055145,298.685699 159.159073,299.865356 166.557983,299.898590 
	C177.556580,299.947968 188.555603,299.933167 199.554367,299.906891 
	C206.642303,299.889984 208.288773,297.575867 206.312759,290.517456 
	C204.529373,284.147156 202.732559,277.780609 200.784119,270.560150 
z"/>
<path fill="#040404" opacity="1.000000" stroke="none" 
	d="
M200.862885,270.986267 
	C202.732559,277.780609 204.529373,284.147156 206.312759,290.517456 
	C208.288773,297.575867 206.642303,299.889984 199.554367,299.906891 
	C188.555603,299.933167 177.556580,299.947968 166.557983,299.898590 
	C159.159073,299.865356 158.055145,298.685699 157.784195,291.151245 
	C157.281815,277.181824 157.027863,263.195831 156.142807,249.250198 
	C155.438156,238.147034 150.004639,230.916306 142.420120,229.644196 
	C134.462677,228.309540 126.992096,229.800369 119.724693,233.237106 
	C102.449005,241.406738 95.886345,255.942932 95.558273,273.983368 
	C95.435410,280.739594 96.176361,287.537384 96.912056,294.273804 
	C97.357475,298.352295 96.260880,300.034851 91.948265,299.975891 
	C79.285316,299.802734 66.618141,299.969513 53.953342,299.889282 
	C47.375774,299.847595 45.761707,298.196625 46.296791,291.872589 
	C47.532887,277.263489 42.665730,263.755219 39.147945,249.964355 
	C34.449978,231.546814 30.080692,213.045456 25.544043,194.586533 
	C25.321241,193.679993 24.847942,192.835037 24.047173,190.873535 
	C22.838394,192.980698 21.680952,194.202606 21.413927,195.595245 
	C19.880474,203.592880 18.528883,211.592224 21.539768,219.626205 
	C24.027201,226.263443 22.130646,232.375473 16.554527,236.833466 
	C10.964247,232.048325 9.591599,225.831940 12.078366,218.467422 
	C13.005798,215.720856 13.607166,212.709305 13.587098,209.823944 
	C13.490033,195.868240 15.478684,182.549042 22.104452,169.902771 
	C24.368559,165.581390 23.901562,159.875427 24.931726,154.853226 
	C29.496012,132.601639 40.236015,113.239342 53.936901,95.546776 
	C72.101372,72.090179 94.164169,52.999466 120.432404,38.933624 
	C131.333008,33.096684 143.192139,30.620407 155.269913,29.989929 
	C165.531464,29.454266 175.885406,30.329098 186.177933,30.930916 
	C190.059616,31.157883 192.940475,30.723156 195.820358,27.554655 
	C198.645721,24.446131 202.493607,22.107460 206.220718,20.015169 
	C211.917938,16.816925 217.186127,18.784229 221.793076,22.630405 
	C229.944855,29.436026 233.373016,38.958630 236.295471,48.711941 
	C239.303207,58.749786 238.559128,68.354271 233.050934,77.469589 
	C232.132065,78.990173 231.779572,80.856186 231.186951,82.570038 
	C229.952164,86.140915 229.625961,89.985252 233.513107,91.688484 
	C237.400665,93.391884 241.690262,93.083618 244.993973,89.583504 
	C249.757675,84.536606 250.508301,77.138985 246.960968,71.155411 
	C245.699417,69.027451 244.267258,66.912788 243.498413,64.597633 
	C241.480377,58.520859 246.614120,52.605801 252.736877,54.481831 
	C272.292267,60.473663 289.319092,70.731445 297.038971,90.445457 
	C300.970673,100.485680 301.703278,112.151817 302.070770,123.143547 
	C303.108521,154.184372 295.324829,182.814545 276.991882,208.410934 
	C272.625732,214.506958 270.044373,221.915680 266.961517,228.862366 
	C266.451691,230.011139 267.075043,232.570465 268.058350,233.322540 
	C273.291199,237.324768 278.819427,240.939240 284.211731,244.735733 
	C285.460114,245.614655 286.576904,246.680481 287.754242,247.660339 
	C286.214355,248.735886 284.619812,250.799789 283.143860,250.718216 
	C276.261780,250.337799 269.412354,249.365692 262.551697,248.601440 
	C262.075867,248.548431 261.603455,248.465073 260.511261,248.305527 
	C258.895020,254.665848 257.440155,261.051056 255.637817,267.336639 
	C252.572159,278.027985 248.344788,287.982574 237.848297,293.747742 
	C227.571686,299.392090 212.918137,291.479126 213.015228,279.728607 
	C213.041824,276.510834 215.568588,272.341888 218.239166,270.289307 
	C228.723450,262.230988 232.196121,250.913315 234.441711,238.809845 
	C234.532257,238.321823 234.383682,237.760681 234.563034,237.322159 
	C238.355698,228.049332 230.811493,222.327606 227.584778,215.279068 
	C227.314545,214.688812 225.822754,214.148361 225.111938,214.347336 
	C217.223801,216.555252 211.616730,213.385345 207.198441,207.095490 
	C206.752472,206.460587 205.965164,206.065430 204.140350,204.596024 
	C199.364243,227.029175 200.161331,248.800613 200.862885,270.986267 
z"/>
</svg>